<?xml version="1.0" encoding="utf-8"?>
<!-- Generator: Adobe Illustrator 17.0.0, SVG Export Plug-In . SVG Version: 6.00 Build 0)  -->
<!DOCTYPE svg PUBLIC "-//W3C//DTD SVG 1.1//EN" "http://www.w3.org/Graphics/SVG/1.1/DTD/svg11.dtd">
<svg version="1.1" id="Layer_1" xmlns="http://www.w3.org/2000/svg" xmlns:xlink="http://www.w3.org/1999/xlink" x="0px" y="0px"
	 width="812px" height="302px" viewBox="0 0 812 302" enable-background="new 0 0 812 302" xml:space="preserve">
<path fill="#FFFFFF" d="M274.541,189.292c-8.002-13.946-20.804-13.946-28.806,0l-50.524,87.56
	C187.209,290.569,193.839,302,209.614,302h100.134c16.003,0,22.633-11.431,14.632-25.148L274.541,189.292z"/>
<path fill="#FFFFFF" d="M216.013,86.185l-26.292-46.409l-11.202-19.89c-8.001-13.946-20.804-13.946-28.806,0L3.398,276.624
	c-8.002,13.945-1.372,25.147,14.631,25.147h40.694h27.891h4.801c13.26,0,29.72-9.373,36.35-21.032l88.247-152.717
	C222.414,116.82,222.414,97.845,216.013,86.185z"/>
<path fill="#FFFFFF" d="M758.742,189.292c-8.002-13.946-20.805-13.946-28.806,0l-50.525,87.56
	C671.41,290.569,678.04,302,693.814,302h100.135c16.003,0,22.633-11.431,14.631-25.148L758.742,189.292z"/>
<path fill="#FFFFFF" d="M700.21,86.185l-26.291-46.409l-11.203-19.89c-8.001-13.946-20.804-13.946-28.805,0L487.824,276.395
	c-8.002,13.946-1.372,25.148,14.632,25.148h40.465h27.891h4.801c13.26,0,29.72-9.373,36.35-21.033l88.247-152.717
	C706.611,116.82,706.84,97.845,700.21,86.185z"/>
<path fill="#FFFFFF" d="M566.478,25.148C574.479,11.202,567.849,0,551.846,0H451.712c-16.004,0-22.405,11.202-14.403,25.148
	l50.524,87.56c8.002,13.718,21.033,13.718,28.806,0L566.478,25.148z"/>
<path fill="#FFFFFF" d="M458.119,215.587l-26.291,46.409l-11.202,19.89c-8.002,13.945-20.804,13.945-28.806,0L245.505,25.148
	C237.503,11.203,244.133,0,260.136,0h40.694h27.892h4.801c13.259,0,29.72,9.373,36.35,21.033l88.246,152.717
	C464.521,185.18,464.749,203.927,458.119,215.587z"/>
</svg>
